<?xml version="1.0" standalone="no"?>
<!DOCTYPE svg PUBLIC "-//W3C//DTD SVG 1.1//EN" "http://www.w3.org/Graphics/SVG/1.1/DTD/svg11.dtd" >
<svg xmlns="http://www.w3.org/2000/svg">
<metadata>Generated by IcoMoon</metadata>
<defs>
<font id="Aleign" horiz-adv-x="1024">
<font-face units-per-em="1024" ascent="960" descent="-64" />
<missing-glyph horiz-adv-x="1024" />
<glyph unicode="&#x20;" horiz-adv-x="512" d="" />
<glyph unicode="&#xe900;" glyph-name="checked" d="M374.374 83.302c-0.042 0-0.092 0-0.142 0-22.748 0-43.338 9.237-58.224 24.165l-291.842 291.842c-14.96 14.947-24.213 35.602-24.213 58.419 0 45.608 36.973 82.581 82.581 82.581 22.791 0 43.426-9.233 58.369-24.162l233.42-233.42 525.312 525.261c14.938 14.938 35.574 24.177 58.368 24.177 45.588 0 82.545-36.957 82.545-82.545 0-22.794-9.239-43.43-24.177-58.368l-583.68-583.68c-14.902-14.979-35.525-24.253-58.314-24.269z" />
<glyph unicode="&#xe901;" glyph-name="chevron" d="M520.806 200.124l472.542 472.474c5.128 5.128 8.299 12.212 8.299 20.036 0 15.649-12.686 28.336-28.336 28.336-7.825 0-14.909-3.172-20.036-8.299l-452.403-451.994-452.335 452.335c-5.139 5.077-12.205 8.213-20.004 8.213-15.609 0-28.285-12.563-28.465-28.13 0-0.044 0-0.075 0-0.106 0-7.782 3.215-14.814 8.39-19.838l472.549-472.548c5.122-5.225 12.252-8.463 20.14-8.463 7.649 0 14.587 3.046 19.666 7.991z" />
<glyph unicode="&#xe902;" d="M912.477 638.464c-0.036 0-0.078 0-0.12 0-30.48 0-58.418 10.883-80.14 28.975l-116.161-99.538-115.991 100.026c-21.639-18.323-49.869-29.463-80.701-29.463-0.036 0-0.071 0-0.107 0l0.005-430.033h335.639v-4.655l94.86 440.087c-10.906-3.427-23.447-5.402-36.45-5.402-0.293 0-0.586 0.001-0.878 0.003z" />
<glyph unicode="&#xe903;" d="M519.168 208.431v430.033c-0.030 0-0.066 0-0.102 0-30.832 0-59.062 11.14-80.885 29.614l-115.622-100.177-116.364 99.375c-21.577-17.961-49.583-28.863-80.135-28.863-13.229 0-25.981 2.044-37.957 5.834l95.75-440.33v4.655z" />
<glyph unicode="&#xe904;" d="M125.673 890.182c-69.51 0-125.859-56.349-125.859-125.859s56.349-125.859 125.859-125.859z" />
<glyph unicode="&#xe905;" d="M125.859 638.464c69.51 0 125.859 56.349 125.859 125.859s-56.349 125.859-125.859 125.859z" />
<glyph unicode="&#xe906;" d="M912.291 890.182c-69.51 0-125.859-56.349-125.859-125.859s56.349-125.859 125.859-125.859z" />
<glyph unicode="&#xe907;" d="M912.477 638.464c69.51 0 125.859 56.349 125.859 125.859s-56.349 125.859-125.859 125.859z" />
<glyph unicode="&#xe908;" d="M518.982 890.182c-69.51 0-125.859-56.349-125.859-125.859s56.349-125.859 125.859-125.859z" />
<glyph unicode="&#xe909;" d="M519.168 638.464c69.51 0 125.859 56.349 125.859 125.859s-56.349 125.859-125.859 125.859z" />
<glyph unicode="&#xe90a;" d="M183.529 208.477h671.232v-188.788h-671.232v188.788z" />
<glyph unicode="&#xe90b;" d="M520.98 861.538c-0.060 0-0.132 0-0.204 0-287.642 0-520.822-233.18-520.822-520.822 0-122.744 42.461-235.571 113.495-324.593l816.029 1.048c70.226 87.974 112.687 200.801 112.687 323.545 0 287.642-233.18 520.822-520.822 520.822-0.127 0-0.254 0-0.382 0z" />
<glyph unicode="&#xe90c;" d="M121.659 177.9c-2.747 6.616-9.156 11.184-16.632 11.184-2.453 0-4.79-0.492-6.92-1.382l-65.969-26.935c4.135-11.264 8.546-22.449 13.43-33.319l66.245 26.978c6.611 2.762 11.172 9.175 11.172 16.654 0 2.444-0.487 4.774-1.37 6.899z" />
<glyph unicode="&#xe90d;" d="M161.674 340.559c0 9.919-8.041 17.959-17.959 17.959h-143.281c0-5.986-0.433-11.815-0.433-17.959s0.591-11.815 0.788-17.959h142.966c9.919 0 17.959 8.041 17.959 17.959z" />
<glyph unicode="&#xe90e;" d="M123.589 507.865c0.916 2.084 1.449 4.513 1.449 7.067 0 7.413-4.492 13.778-10.902 16.52l-66.047 27.614q-7.562-16.266-13.982-33.083l65.93-27.806c2.075-0.904 4.492-1.43 7.032-1.43 7.428 0 13.806 4.5 16.555 10.923z" />
<glyph unicode="&#xe90f;" d="M140.209 695.926l50.53-50.53c3.251-3.251 7.741-5.261 12.702-5.261 9.921 0 17.963 8.042 17.963 17.963 0 4.96-2.011 9.451-5.261 12.702l-50.53 50.491q-13.115-12.249-25.403-25.403z" />
<glyph unicode="&#xe910;" d="M334.887 749.726c2.747-6.62 9.16-11.192 16.64-11.192 9.922 0 17.966 8.044 17.966 17.966 0 2.442-0.487 4.77-1.37 6.893l-27.013 66.244c-11.264-4.135-22.331-8.783-33.201-13.706z" />
<glyph unicode="&#xe911;" d="M520.98 699.865c9.919 0 17.959 8.041 17.959 17.959v143.281c-5.986 0.197-11.815 0.433-17.959 0.433s-11.815-0.236-17.959-0.433v-143.281c0-9.919 8.041-17.959 17.959-17.959z" />
<glyph unicode="&#xe912;" d="M688.325 737.95c2.046-0.896 4.431-1.418 6.938-1.418 0.012 0 0.023 0 0.035 0 0.007 0 0.017 0 0.028 0 7.402 0 13.757 4.477 16.507 10.872l27.614 66.047q-16.266 7.562-33.083 13.982l-27.806-65.93c-0.912-2.080-1.443-4.504-1.443-7.053 0-7.426 4.507-13.799 10.935-16.534z" />
<glyph unicode="&#xe913;" d="M876.386 721.329l-50.53-50.53c-3.251-3.251-5.261-7.741-5.261-12.702 0-9.921 8.042-17.963 17.963-17.963 4.96 0 9.451 2.011 12.702 5.261l50.491 50.53q-12.249 13.115-25.403 25.403z" />
<glyph unicode="&#xe914;" d="M943.695 493.371l66.363 27.057c-4.175 11.303-8.822 22.331-13.706 33.241l-66.245-26.978c-6.62-2.747-11.192-9.16-11.192-16.64 0-9.922 8.044-17.966 17.966-17.966 2.442 0 4.77 0.487 6.893 1.37z" />
<glyph unicode="&#xe915;" d="M1041.959 340.559c0 6.026-0.236 11.815-0.433 17.959h-143.281c-9.919 0-17.959-8.041-17.959-17.959s8.041-17.959 17.959-17.959h142.966c0.197 5.986 0.788 11.815 0.788 17.959z" />
<glyph unicode="&#xe916;" d="M1007.537 155.175l-65.654 27.569c-2.058 0.89-4.454 1.407-6.971 1.407-9.924 0-17.969-8.045-17.969-17.969 0-7.407 4.481-13.767 10.881-16.517l65.929-27.614c5.041 10.831 9.531 21.937 13.824 33.162z" />
<glyph unicode="&#xe917;" d="M359.306 89.049h323.387v107.796h-323.387z" />
<glyph unicode="&#xe918;" d="M489.472 405.031c-24.109-11.941-40.393-36.376-40.393-64.615 0-39.697 32.18-71.877 71.877-71.877 28.238 0 52.674 16.284 64.427 39.974 20.865 42.718 39.809 85.805 64.030 126.174l51.2 85.386-85.386-51.2c-40.369-24.222-83.495-43.323-125.794-63.842z" />
<glyph unicode="&#xe919;" glyph-name="delete" d="M997.513 734.857l-312.798-294.161 312.798-294.025c21.475-19.69 34.889-47.873 34.889-79.189s-13.414-59.499-34.809-79.117c-22.168-20.4-51.772-32.862-84.286-32.862s-62.118 12.462-84.295 32.871l-312.778 293.944-312.866-294.025c-21.856-20.308-51.245-32.77-83.544-32.77-0.245 0-0.49 0.001-0.734 0.002-0.149-0.001-0.37-0.002-0.591-0.002-32.299 0-61.688 12.462-83.621 32.84-21.398 19.62-34.812 47.803-34.812 79.119s13.414 59.499 34.809 79.117l312.877 294.096-312.798 294.161c-21.494 19.681-34.922 47.867-34.922 79.189s13.428 59.509 34.841 79.116c22.176 20.387 51.778 32.839 84.288 32.839s62.112-12.452 84.296-32.847l312.777-294.080 312.798 294.025c22.095 20.314 51.697 32.766 84.207 32.766s62.112-12.452 84.296-32.847c21.38-19.597 34.792-47.768 34.792-79.071 0-31.271-13.383-59.415-34.735-79.019z" />
<glyph unicode="&#xe91a;" glyph-name="eye" d="M513.775 755.2c-196.335 0-374.34-107.418-505.719-281.873-5.015-6.688-8.030-15.126-8.030-24.269s3.015-17.581 8.106-24.374c131.303-174.555 309.309-281.972 505.644-281.972s374.34 107.418 505.719 281.873c5.015 6.688 8.030 15.126 8.030 24.269s-3.015 17.581-8.106 24.374c-131.303 174.555-309.445 281.972-505.644 281.972zM527.872 233.301c-4.211-0.293-9.127-0.459-14.082-0.459-119.348 0-216.098 96.75-216.098 216.098s96.75 216.098 216.098 216.098c119.348 0 216.098-96.75 216.098-216.098 0-4.955-0.167-9.87-0.495-14.741-7.311-107.586-93.307-193.57-200.892-200.861zM521.353 332.937c-2.225-0.152-4.824-0.238-7.442-0.238-64.264 0-116.361 52.096-116.361 116.361s52.096 116.361 116.361 116.361c64.264 0 116.361-52.096 116.361-116.361 0-2.618-0.086-5.216-0.257-7.792-3.636-58.185-50.173-104.757-108.359-108.45z" />
<glyph unicode="&#xe91b;" d="M509.361 783.714c-173.040-0.020-313.308-140.301-313.308-313.344 0-138.016 89.231-255.191 213.149-296.983l2.21-192.765h39.188v-58.762h117.524v58.762h39.188v192.118c126.128 42.438 215.359 159.613 215.359 297.63 0 173.042-140.268 313.323-313.306 313.344z" />
<glyph unicode="&#xe91c;" d="M509.479 960c-10.876 0-19.692-8.817-19.692-19.692v-78.257c-0.063-0.59-0.098-1.274-0.098-1.967 0-10.876 8.817-19.692 19.692-19.692s19.692 8.817 19.692 19.692c0 0.693-0.036 1.377-0.106 2.051l0.007 78.173c0 0 0 0.001 0 0.001 0 10.807-8.705 19.58-19.485 19.691z" />
<glyph unicode="&#xe91d;" d="M979.495 489.905h-78.257c-0.59 0.063-1.274 0.098-1.967 0.098-10.876 0-19.692-8.817-19.692-19.692s8.817-19.692 19.692-19.692c0.693 0 1.377 0.036 2.051 0.106l78.252-0.007c9.996 1.033 17.726 9.411 17.726 19.594s-7.729 18.561-17.641 19.587z" />
<glyph unicode="&#xe91e;" d="M117.642 489.905h-78.257c-9.996-1.033-17.726-9.411-17.726-19.594s7.729-18.561 17.641-19.587l78.342-0.007c9.996 1.033 17.726 9.411 17.726 19.594s-7.729 18.561-17.641 19.587z" />
<glyph unicode="&#xe91f;" d="M828.14 816.561l-55.572-55.375c-4.804-3.631-7.877-9.334-7.877-15.754 0-10.876 8.817-19.692 19.692-19.692 6.42 0 12.123 3.073 15.718 7.827l55.608 55.306c4.804 3.631 7.877 9.334 7.877 15.754 0 10.876-8.817 19.692-19.692 19.692-6.42 0-12.123-3.073-15.718-7.827z" />
<glyph unicode="&#xe920;" d="M218.506 207.124l-55.375-55.572c-4.804-3.631-7.877-9.334-7.877-15.754 0-10.876 8.817-19.692 19.692-19.692 6.42 0 12.123 3.073 15.718 7.827l55.411 55.424c2.459 3.25 3.938 7.36 3.938 11.815 0 10.876-8.817 19.692-19.692 19.692-4.455 0-8.565-1.48-11.865-3.974z" />
<glyph unicode="&#xe921;" d="M800.256 207.124c-3.25 2.459-7.36 3.938-11.815 3.938-10.876 0-19.692-8.817-19.692-19.692 0-4.455 1.48-8.565 3.974-11.865l55.418-55.522c3.25-2.459 7.36-3.938 11.815-3.938 10.876 0 19.692 8.817 19.692 19.692 0 4.455-1.48 8.565-3.974 11.865z" />
<glyph unicode="&#xe922;" d="M190.818 816.561c-3.25 2.459-7.36 3.938-11.815 3.938-10.876 0-19.692-8.817-19.692-19.692 0-4.455 1.48-8.565 3.974-11.865l55.339-55.325c3.631-4.804 9.334-7.877 15.754-7.877 10.876 0 19.692 8.817 19.692 19.692 0 6.42-3.073 12.123-7.827 15.718z" />
<glyph unicode="&#xe923;" d="M294.006 450.757c-10.876 0-19.692 8.817-19.692 19.692 0.224 129.699 105.339 234.773 235.033 234.929 0.605 0.063 1.289 0.098 1.982 0.098 10.876 0 19.692-8.817 19.692-19.692s-8.817-19.692-19.692-19.692c-0.693 0-1.377 0.036-2.051 0.106-108.032-0.141-195.641-87.751-195.775-195.854-0.066-10.769-8.746-19.476-19.485-19.587z" />
<glyph unicode="&#xe924;" d="M411.451 117.721v-137.098h39.188v-58.762h117.524v58.762h39.188v137.098z" />
<glyph unicode="&#xe925;" glyph-name="nav" d="M58.514 901.486h907.41c32.317 0 58.514-26.198 58.514-58.514v-2.077c0-32.317-26.198-58.514-58.514-58.514h-907.41c-32.317 0-58.514 26.198-58.514 58.514v2.077c0 32.317 26.198 58.514 58.514 58.514zM58.514 115.288h907.41c32.317 0 58.514-26.198 58.514-58.514v-2.077c0-32.317-26.198-58.514-58.514-58.514h-907.41c-32.317 0-58.514 26.198-58.514 58.514v2.077c0 32.317 26.198 58.514 58.514 58.514zM58.514 377.344h907.41c32.317 0 58.514-26.198 58.514-58.514v-2.077c0-32.317-26.198-58.514-58.514-58.514h-907.41c-32.317 0-58.514 26.198-58.514 58.514v2.077c0 32.317 26.198 58.514 58.514 58.514zM58.514 639.429h907.41c32.317 0 58.514-26.198 58.514-58.514v-2.077c0-32.317-26.198-58.514-58.514-58.514h-907.41c-32.317 0-58.514 26.198-58.514 58.514v2.077c0 32.317 26.198 58.514 58.514 58.514z" />
<glyph unicode="&#xe926;" glyph-name="pause" d="M175.543 930.743h135.519c96.95 0 175.543-78.593 175.543-175.543v-620.105c0-96.95-78.593-175.543-175.543-175.543h-135.519c-96.95 0-175.543 78.593-175.543 175.543v620.105c0 96.95 78.593 175.543 175.543 175.543zM723.5 930.743h135.519c96.95 0 175.543-78.593 175.543-175.543v-620.105c0-96.95-78.593-175.543-175.543-175.543h-135.519c-96.95 0-175.543 78.593-175.543 175.543v620.105c0 96.95 78.593 175.543 175.543 175.543z" />
<glyph unicode="&#xe927;" glyph-name="pencil" d="M511.962 960c-282.77 0-512-229.23-512-512s229.23-512 512-512c282.77 0 512 229.23 512 512s-229.23 512-512 512zM755.371 591.55l-48.621-48.735-98.987 98.987-37.547-37.547 98.987-98.987-242.726-242.726-98.987 98.987-37.547-37.547 98.987-98.987-24.197-24.197-0.683 0.493c-2.691-4.408-7-7.602-12.083-8.774l-92.441-20.619c-1.197-0.266-2.572-0.418-3.983-0.418-10.599 0-19.191 8.592-19.191 19.191 0 1.411 0.152 2.786 0.441 4.11l20.533 92.147c1.205 5.208 4.397 9.515 8.715 12.164l-0.371 0.503 390.637 390.637c2.656 2.653 6.323 4.293 10.373 4.293s7.717-1.641 10.373-4.293l78.241-78.241c2.586-2.644 4.182-6.266 4.182-10.26 0-3.956-1.565-7.547-4.11-10.186z" />
<glyph unicode="&#xe928;" glyph-name="plus" d="M512-64c-282.64 0.324-511.677 229.361-512 511.969 0.324 282.67 229.361 511.707 511.969 512.031 282.67-0.324 511.707-229.361 512.031-511.969-0.324-282.67-229.361-511.707-511.969-512.031zM248.111 485.926c-11.357-0.022-20.556-9.233-20.556-20.594 0 0 0 0 0 0 0-11.353 9.203-20.556 20.556-20.556h236.392v-246.708c0.022-11.357 9.233-20.556 20.594-20.556 0 0 0 0 0 0 11.353 0 20.556 9.203 20.556 20.556v246.708h236.392c0 0 0 0 0 0 11.36 0 20.572 9.199 20.594 20.554 0 11.376-9.22 20.596-20.594 20.596h-236.392v226.152c0 11.353-9.203 20.556-20.556 20.556 0 0 0 0 0 0-11.36 0-20.572-9.199-20.594-20.554v-226.154z" />
<glyph unicode="&#xe929;" d="M962.406 509.082c-58.977 11.639-102.839 62.943-102.839 124.492 0 28.21 9.214 54.268 24.797 75.328l38.438 52.392-83.584 83.507-51.942-35.123c-19.928-13.662-44.564-21.819-71.105-21.819-63.213 0-115.619 46.266-125.204 106.782l-10.052 65.359h-118.144l-15.36-79.565c-11.656-58.971-62.962-102.825-124.51-102.825-26.516 0-51.132 8.139-71.484 22.056l-66.637 45.133-83.558-83.507 38.682-52.736c15.328-20.714 24.535-46.765 24.535-74.966 0-61.547-43.851-112.851-102.014-124.376l-62.425-11.986v-118.144l64.64-9.933c61.237-9.692 107.499-62.103 107.499-125.32 0-26.542-8.155-51.18-22.097-71.543l-34.843-51.508 83.558-83.558 52.736 38.682c20.716 15.34 46.774 24.554 74.984 24.554 61.548 0 112.852-43.862 124.359-102.033l11.934-62.424h118.144l6.989 45.466c9.687 61.242 62.101 107.51 125.321 107.51 28.204 0 54.258-9.209 75.318-24.784l36.749-26.969 83.507 83.558-35.2 51.917c-13.661 19.93-21.816 44.567-21.816 71.109 0 63.217 46.263 115.628 106.779 125.226l65.437 10.053v118.144zM521.856 349.542c-48.947 0-88.627 39.68-88.627 88.627s39.68 88.627 88.627 88.627c48.947 0 88.627-39.68 88.627-88.627s-39.68-88.627-88.627-88.627z" />
<glyph unicode="&#xe92a;" d="M521.856 625.229c-103.324 0-187.085-83.761-187.085-187.085s83.761-187.085 187.085-187.085c103.324 0 187.085 83.761 187.085 187.085 0 0.008 0 0.017 0 0.026 0 103.31-83.749 187.059-187.059 187.059-0.009 0-0.018 0-0.027 0zM521.856 349.542c-48.947 0-88.627 39.68-88.627 88.627s39.68 88.627 88.627 88.627c48.947 0 88.627-39.68 88.627-88.627s-39.68-88.627-88.627-88.627z" />
<glyph unicode="&#xe92b;" d="M855.589-68.169h-673.902c-0.175-0.002-0.382-0.002-0.589-0.002-39.17 0-70.972 31.547-71.383 70.619v772.318c0.062 39.502 32.068 71.508 71.564 71.57h674.31c0.175 0.002 0.382 0.002 0.589 0.002 39.17 0 70.972-31.547 71.383-70.619v-381.589c0-15.966-12.943-28.91-28.91-28.91s-28.91 12.943-28.91 28.91v381.659c-0.373 7.194-6.297 12.887-13.551 12.887-0.212 0-0.423-0.005-0.632-0.014l-674.274 0.001c-7.615 0-13.787-6.173-13.787-13.787v-772.389c0.373-7.194 6.297-12.887 13.551-12.887 0.212 0 0.423 0.005 0.632 0.014l673.909-0.001c0.18-0.009 0.39-0.013 0.602-0.013 7.254 0 13.178 5.692 13.55 12.853l0.001 210.173c0 15.966 12.943 28.91 28.91 28.91s28.91-12.943 28.91-28.91v-210.139c-0.412-39.111-32.214-70.658-71.384-70.658-0.207 0-0.414 0.001-0.62 0.003z" />
<glyph unicode="&#xe92c;" d="M629.723 815.506c0 1.902 0 3.84 0 5.778 0 60.664-49.178 109.842-109.842 109.842s-109.842-49.178-109.842-109.842q0-2.926 0-5.778h-131.657v-106.935h479.817v106.935z" />
<glyph unicode="&#xe92d;" d="M758.528 679.643h-479.817c-15.956 0-28.891 12.935-28.891 28.891v106.935c0 15.956 12.935 28.891 28.891 28.891h104.521c11.463 66.051 68.347 115.641 136.814 115.641s125.351-49.59 136.694-114.812l101.751-0.829c15.956 0 28.891-12.935 28.891-28.891v-106.935c0-15.943-12.914-28.871-28.853-28.891zM307.639 737.463h421.961v49.115h-99.84c-0.001 0-0.002 0-0.002 0-15.956 0-28.891 12.935-28.891 28.891 0 0.527 0.014 1.052 0.042 1.572-0.003 1.354-0.003 2.78-0.003 4.206 0 44.698-36.235 80.933-80.933 80.933s-80.933-36.235-80.933-80.933q0-2.158 0-4.279c0.025-0.448 0.039-0.972 0.039-1.499 0-15.956-12.935-28.891-28.891-28.891-0.001 0-0.002 0-0.002 0h-102.766v-49.115z" />
<glyph unicode="&#xe92e;" d="M278.747 594.761h245.687v-95.378h-245.687v95.378z" />
<glyph unicode="&#xe92f;" d="M524.398 470.491h-245.687c-15.956 0-28.891 12.935-28.891 28.891v95.378c0 15.956 12.935 28.891 28.891 28.891h245.687c15.956 0 28.891-12.935 28.891-28.891v-95.378c0-15.956-12.935-28.891-28.891-28.891zM307.639 528.311h187.867v37.559h-187.867z" />
<glyph unicode="&#xe930;" d="M758.528 470.491h-115.602c-15.956 0-28.891 12.935-28.891 28.891v95.378c0 15.956 12.935 28.891 28.891 28.891h115.602c15.966 0 28.91-12.943 28.91-28.91s-12.943-28.91-28.91-28.91h-86.711v-37.559h86.711c15.966 0 28.91-12.943 28.91-28.91s-12.943-28.91-28.91-28.91z" />
<glyph unicode="&#xe931;" d="M278.747 181.467h245.687v-95.378h-245.687v95.378z" />
<glyph unicode="&#xe932;" d="M524.398 57.161h-245.687c-15.956 0-28.891 12.935-28.891 28.891v95.378c0 15.956 12.935 28.891 28.891 28.891h245.687c15.956 0 28.891-12.935 28.891-28.891v-95.342c0-0.011 0-0.024 0-0.037 0-15.956-12.935-28.891-28.891-28.891 0 0 0 0 0 0zM307.639 114.981h187.867v37.559h-187.867z" />
<glyph unicode="&#xe933;" d="M758.528 57.161h-115.602c-15.956 0-28.891 12.935-28.891 28.891v95.378c0 15.956 12.935 28.891 28.891 28.891h115.602c15.966 0 28.91-12.943 28.91-28.91s-12.943-28.91-28.91-28.91h-86.711v-37.559h86.711c15.966 0 28.91-12.943 28.91-28.91s-12.943-28.91-28.91-28.91z" />
<glyph unicode="&#xe934;" d="M512.841 388.133h245.687v-95.378h-245.687v95.378z" />
<glyph unicode="&#xe935;" d="M758.528 263.826h-245.687c-15.956 0-28.891 12.935-28.891 28.891v95.378c0 15.956 12.935 28.891 28.891 28.891h245.687c15.956 0 28.891-12.935 28.891-28.891v-95.378c0-15.956-12.935-28.891-28.891-28.891zM541.769 321.536h187.867v37.669h-187.867z" />
<glyph unicode="&#xe936;" d="M394.35 263.826h-115.602c-15.956 0-28.891 12.935-28.891 28.891v95.378c0 15.956 12.935 28.891 28.891 28.891h115.602c15.966 0 28.91-12.943 28.91-28.91s-12.943-28.91-28.91-28.91h-86.711v-37.632h86.711c15.966 0 28.91-12.943 28.91-28.91s-12.943-28.91-28.91-28.91z" />
</font>
</defs>
</svg>
